# AST/ASF file generated using VICON BodyLanguage
# -----------------------------------------------
:version 1.10
:name VICON
:units
  mass 1.0
  length 0.45
  angle deg
:documentation
   .ast/.asf automatically generated from VICON data using
   VICON BodyBuilder and BodyLanguage model FoxedUp or BRILLIANT.MOD
:root
   order TX TY TZ RX RY RZ
   axis XYZ
   position 0 0 0  
   orientation 0 0 0 
:bonedata
  begin
     id 1 
     name lhipjoint
     direction 0.54267 -0.795011 0.271047 
     length 2.39899 
     axis 0 0 0  XYZ
  end
  begin
     id 2 
     name lfemur
     direction 0.34202 -0.939693 0  
     length 7.49701  
     axis 0 0 20  XYZ
    dof rx ry rz
    limits (-160.0 20.0)
           (-70.0 70.0)
           (-60.0 70.0)
  end
  begin
     id 3 
     name ltibia
     direction 0.34202 -0.939693 0   
     length 8.1668   
     axis 0 0 20   XYZ
    dof rx
    limits (-10.0 170.0)
  end
  begin
     id 4 
     name lfoot
     direction 0.0736283 -0.202292 0.976554   
     length 2.13544   
     axis -90 7.62852e-016 20   XYZ
    dof rx rz
    limits (-45.0 90.0)
           (-70.0 20.0)
  end
  begin
     id 5 
     name ltoes
     direction 1.53557e-011 -4.22024e-011 1   
     length 1.07411   
     axis -90 7.62852e-016 20   XYZ
    dof rx
    limits (-90.0 20.0)
  end
  begin
     id 6 
     name rhipjoint
     direction -0.538061 -0.797813 0.272002   
     length 2.39057  
     axis 0 0 0  XYZ 
  end
  begin
     id 7 
     name rfemur
     direction -0.34202 -0.939693 0   
     length 7.50152   
     axis 0 0 -20   XYZ
    dof rx ry rz
    limits (-160.0 20.0)
           (-70.0 70.0)
           (-70.0 60.0)
  end
  begin
     id 8 
     name rtibia
     direction -0.34202 -0.939693 0   
     length 8.05793   
     axis 0 0 -20   XYZ
    dof rx
    limits (-10.0 170.0)
 end
 begin
     id 9 
     name rfoot
     direction -0.0765195 -0.210236 0.974652   
     length 2.28698  
     axis -90 -7.62852e-016 -20   XYZ
    dof rx rz
    limits (-45.0 90.0)
           (-20.0 70.0)
  end
  begin
     id 10 
     name rtoes
     direction -1.53542e-011 -4.21847e-011 1   
     length 1.14762   
     axis -90 -7.62852e-016 -20   XYZ
    dof rx
    limits (-90.0 20.0)
  end
  begin
     id 11 
     name lowerback
     direction -0.0217239 0.996592 -0.0795765   
     length 2.08176   
     axis 0 0 0   XYZ
    dof rx ry rz
    limits (-20.0 45.0)
           (-30.0 30.0)
           (-30.0 30.0)
  end
  begin
     id 12 
     name upperback
     direction -0.00563773 0.999651 -0.0258155   
     length 2.08898   
     axis 0 0 0   XYZ
    dof rx ry rz
    limits (-20.0 45.0)
           (-30.0 30.0)
           (-30.0 30.0)
  end
  begin
     id 13 
     name thorax
     direction 0.0032706 0.999923 0.0119599   
     length 2.0968   
     axis 0 0 0   XYZ
    dof rx ry rz
    limits (-20.0 45.0)
           (-30.0 30.0)
           (-30.0 30.0)
  end
  begin
     id 14 
     name lowerneck
     direction -0.0285886 0.99568 0.0883427   
     length 1.81272   
     axis 0 0 0   XYZ
    dof rx ry rz
    limits (-20.0 45.0)
           (-30.0 30.0)
           (-30.0 30.0)
  end
  begin
     id 15 
     name upperneck
     direction 0.0807535 0.97985 -0.18268   
     length 1.82518   
     axis 0 0 0   XYZ
    dof rx ry rz
    limits (-20.0 45.0)
           (-30.0 30.0)
           (-30.0 30.0)
  end
  begin
     id 16
     name head
     direction 0.0236605 0.997053 -0.0729767  
     length 1.84443  
     axis 0 0 0   XYZ
    dof rx ry rz
    limits (-20.0 45.0)
           (-30.0 30.0)
           (-30.0 30.0)
  end
  begin
     id 17 
     name lclavicle
     direction 0.918986 0.39378 -0.0200683  
     length 3.27822  
     axis 0 0 0   XYZ
    dof ry rz
    limits (-20.0 10.0)
           (0.0 20.0)
  end
  begin
     id 18 
     name lhumerus
     direction 1 -4.4897e-011 2.09544e-027   
     length 5.5568   
     axis 180 -30 -90   XYZ
    dof rx ry rz
    limits (-60.0 90.0)
           (-90.0 90.0)
           (-90.0 90.0)
  end
  begin
     id 19
     name lradius
     direction 1 -4.48957e-011 -1.27696e-026   
     length 3.63979   
     axis 180 -30 -90   XYZ
    dof rx
    limits (-10.0 170.0)
  end
  begin
     id 20
     name lwrist
     direction 1 -4.49001e-011 -1.49001e-026   
     length 1.8199   
     axis 9.0955e-015 90 90   XYZ
    dof ry
    limits (-180.0 0.0)
 end
  begin
     id 21 
     name lhand
     direction 1 -4.48709e-011 -2.9758e-026   
     length 0.569419   
     axis 1.90115e-014 90 90   XYZ
    dof rx rz
    limits (-90.0 90.0)
           (-45.0 45.0)
  end
  begin
     id 22 
     name lfingers
     direction 1 -4.49175e-011 -5.96505e-026   
     length 0.45908   
     axis 3.80223e-014 90 90   XYZ
    dof rx
    limits (0.0 90.0)
  end
  begin
     id 23
     name lthumb
     direction 0.707107 -6.34864e-011 0.707107   
     length 0.65915   
     axis -90 45 -3.84942e-014   XYZ
    dof rx rz
    limits (-45.0 45.0)
           (-45.0 45.0)
  end
  begin
     id 24 
     name rclavicle
     direction -0.911913 0.396426 -0.106115   
     length 3.46301  
     axis 0 0 0   XYZ 
    dof ry rz
    limits (-10.0 20.0)
           (-20.0 0.0)
  end
  begin
     id 25 
     name rhumerus
     direction -1 -4.48965e-011 7.78516e-028  
     length 5.34339   
     axis 180 30 90   XYZ
    dof rx ry rz
    limits (-90.0 60.0)
           (-90.0 90.0)
           (-90.0 90.0)
  end
  begin
     id 26 
     name rradius
     direction -1 -4.48948e-011 -5.79823e-027   
     length 3.65101   
     axis 180 30 90   XYZ
    dof rx
    limits (-10.0 170.0)
  end
  begin
     id 27 
     name rwrist
     direction -1 -4.48995e-011 -1.48996e-026   
     length 1.8255   
     axis 9.0955e-015 -90 -90   XYZ
    dof ry
    limits (-180.0 0.0)
  end
  begin
     id 28
     name rhand
     direction -1 -4.48957e-011 -2.97937e-026   
     length 0.694249   
     axis 1.90115e-014 -90 -90   XYZ
    dof rx rz
    limits (-90.0 90.0)
           (-45.0 45.0)
  end
  begin
     id 29
     name rfingers
     direction -1 -4.4898e-011 -5.95943e-026   
     length 0.559721   
     axis 3.80223e-014 -90 -90   XYZ
    dof rx
    limits (0.0 90.0)
  end
  begin
     id 30
     name rthumb
     direction -0.707107 -6.34969e-011 0.707107   
     length 0.803651   
     axis -90 -45 3.84942e-014   XYZ
    dof rx rz
    limits (-45.0 45.0)
           (-45.0 45.0)
  end
:hierarchy
  begin
    root lhipjoint rhipjoint lowerback
    lhipjoint lfemur
    lfemur ltibia
    ltibia lfoot
    lfoot ltoes
    rhipjoint rfemur
    rfemur rtibia
    rtibia rfoot
    rfoot rtoes
    lowerback upperback
    upperback thorax
    thorax lowerneck lclavicle rclavicle
    lowerneck upperneck
    upperneck head
    lclavicle lhumerus
    lhumerus lradius
    lradius lwrist
    lwrist lhand lthumb
    lhand lfingers
    rclavicle rhumerus
    rhumerus rradius
    rradius rwrist
    rwrist rhand rthumb
    rhand rfingers
  end

#!OML:ASF H:\Terrain\Walking\May29\JustinRory\rory.ASF
:FULLY-SPECIFIED
:DEGREES
120
root 11.6418 18.1186 6.96697 -174.57 5.25622 179.153
lowerback 4.95448 2.07402 -2.84054
upperback 3.03454 2.84564 -1.41048
thorax 0.284166 1.4825 0.0106978
lowerneck -5.53531 -2.26942 -5.27833
upperneck 7.51174 -3.05351 4.70991
head 3.6301 -1.50979 2.36467
rclavicle 2.28602e-014 4.37326e-015
rhumerus -22.4121 13.7596 -79.3291
rradius 106.886
rwrist -14.2766
rhand -6.70982 35.3899
rfingers 7.12502
rthumb 19.1499 6.31271
lclavicle 2.28602e-014 4.37326e-015
lhumerus -25.4618 -4.33082 79.4202
lradius 114.17
lwrist 24.4215
lhand -7.80427 24.1405
lfingers 7.12502
lthumb 18.0972 53.3186
rfemur -8.33142 -0.95908 20.4493
rtibia 32.2691
rfoot -23.5411 -23.1482
rtoes 10.7435
lfemur -31.5689 -4.04711 -16.3174
ltibia 36.0949
lfoot -5.34096 -5.6832
ltoes -9.64717
121
root 11.6306 18.1248 6.95293 -174.684 6.19625 179.421
lowerback 4.87479 2.38671 -2.40116
upperback 3.03927 3.27805 -1.4078
thorax 0.34718 1.70158 -0.248009
lowerneck -5.31193 -2.26973 -5.17888
upperneck 7.47635 -3.05511 4.49196
head 3.56514 -1.51918 2.27137
rclavicle 5.36719e-015 2.10712e-014
rhumerus -22.4398 12.9912 -79.1692
rradius 107.901
rwrist -15.4175
rhand -2.73772 38.4134
rfingers 7.12502
rthumb 22.9657 9.76132
lclavicle 5.36719e-015 2.10712e-014
lhumerus -25.8535 -4.50741 79.4799
lradius 114.659
lwrist 23.3517
lhand -8.84372 22.4698
lfingers 7.12502
lthumb 17.0969 51.7375
rfemur -8.20434 -0.728377 20.4763
rtibia 32.0892
rfoot -23.2323 -22.6388
rtoes 10.2464
lfemur -31.3806 -3.85078 -16.0288
ltibia 36.4049
lfoot -5.82815 -5.00639
ltoes -10.4771
122
root 11.6219 18.1278 6.95241 -174.77 6.75446 179.723
lowerback 4.8153 2.58294 -1.88454
upperback 3.12818 3.56524 -1.37776
thorax 0.495968 1.85113 -0.511607
lowerneck -5.08309 -2.34454 -5.01358
upperneck 7.3668 -3.1461 4.13994
head 3.47284 -1.57424 2.11594
rclavicle -2.72335e-014 1.03368e-014
rhumerus -21.9522 12.1144 -78.8688
rradius 108.585
rwrist -16.2604
rhand -3.66552 38.6945
rfingers 7.12502
rthumb 22.0751 9.93455
lclavicle -2.72335e-014 1.03368e-014
lhumerus -25.8353 -4.69036 79.4614
lradius 115.074
lwrist 22.6177
lhand -8.91848 21.469
lfingers 7.12502
lthumb 17.0249 50.7429
rfemur -8.128 -0.848133 20.5974
rtibia 31.9796
rfoot -23.0415 -21.977
rtoes 10.3776
lfemur -31.3135 -3.71949 -15.6813
ltibia 36.6897
lfoot -5.97371 -4.63932
ltoes -10.2016
123
root 11.6162 18.1226 6.95428 -174.902 7.13954 179.833
lowerback 4.80296 2.65817 -1.54588
upperback 3.2953 3.69473 -1.40853
thorax 0.696943 1.92496 -0.730372
lowerneck -5.22192 -2.38061 -4.9082
upperneck 7.4511 -3.1749 3.86844
head 3.51997 -1.59398 2.0028
rclavicle 1.89839e-014 -3.18055e-015
rhumerus -20.9695 11.4572 -78.6402
rradius 109.095
rwrist -15.7401
rhand -6.57438 37.4377
rfingers 7.12502
rthumb 19.2801 8.37339
lclavicle 1.89839e-014 -3.18055e-015
lhumerus -25.5418 -4.72954 79.2955
lradius 115.424
lwrist 21.8641
lhand -8.9398 20.3997
lfingers 7.12502
lthumb 17.0044 49.6754
rfemur -7.95837 -1.13531 20.5551
rtibia 31.7788
rfoot -22.5045 -21.4788
rtoes 9.51658
lfemur -31.2634 -3.63218 -15.5278
ltibia 37.0217
lfoot -5.9203 -4.54408
ltoes -7.09934
124
root 11.6077 18.1218 6.95329 -175.041 7.48539 179.962
lowerback 4.79591 2.69719 -1.20346
upperback 3.44814 3.77309 -1.40592
thorax 0.879556 1.97335 -0.915292
lowerneck -5.51309 -2.34658 -4.7632
upperneck 7.69686 -3.10416 3.5044
head 3.64483 -1.56764 1.85632
rclavicle 8.64713e-015 1.23246e-014
rhumerus -19.8457 11.061 -78.5092
rradius 109.766
rwrist -14.885
rhand -7.79187 35.8214
rfingers 7.12502
rthumb 18.1091 6.64438
lclavicle 8.64713e-015 1.23246e-014
lhumerus -24.8718 -4.74646 79.0938
lradius 115.486
lwrist 21.0544
lhand -9.43131 19.8212
lfingers 7.12502
lthumb 16.5312 49.137
rfemur -7.76175 -1.15902 20.5668
rtibia 31.5743
rfoot -22.0224 -21.3222
rtoes 8.3021
lfemur -31.2578 -3.52552 -15.3917
ltibia 37.4045
lfoot -5.74313 -4.30869
ltoes -4.51498
125
root 11.5928 18.1229 6.95005 -175.183 7.65014 180.167
lowerback 4.75661 2.71775 -0.693498
upperback 3.57143 3.82911 -1.40481
thorax 1.06113 2.01333 -1.19277
lowerneck -5.49356 -2.36553 -4.61571
upperneck 7.73912 -3.12776 3.29437
head 3.64711 -1.58424 1.75731
rclavicle -4.67144e-015 3.97569e-015
rhumerus -18.8001 10.4906 -78.3641
rradius 110.362
rwrist -14.0791
rhand -8.14241 35.4302
rfingers 7.12502
rthumb 17.7718 6.2223
lclavicle -4.67144e-015 3.97569e-015
lhumerus -23.9898 -4.94622 78.8489
lradius 115.476
lwrist 20.4716
lhand -9.99146 19.6145
lfingers 7.12502
lthumb 15.9919 48.9744
rfemur -7.50692 -0.917349 20.6818
rtibia 31.3993
rfoot -22.2103 -21.1232
rtoes 9.51321
lfemur -31.3513 -3.60681 -15.1968
ltibia 37.8365
lfoot -5.64169 -3.96422
ltoes -4.17861
126
root 11.5973 18.1221 6.95714 -175.335 7.85627 180.267
lowerback 4.84031 2.81767 -0.571322
upperback 3.57397 3.96669 -1.40657
thorax 1.02776 2.08502 -1.27221
lowerneck -5.03528 -2.43858 -4.49772
upperneck 7.67983 -3.25937 3.25217
head 3.53861 -1.65434 1.71702
rclavicle 4.54223e-014 -2.82274e-014
rhumerus -17.7669 9.65095 -78.0961
rradius 110.88
rwrist -13.4441
rhand -8.17927 36.0473
rfingers 7.12502
rthumb 17.7363 6.83623
lclavicle 4.54223e-014 -2.82274e-014
lhumerus -23.4512 -5.37372 78.6632
lradius 115.841
lwrist 19.8637
lhand -10.2661 19.3167
lfingers 7.12502
lthumb 15.7274 48.6976
rfemur -7.26091 -0.56024 20.8278
rtibia 31.2633
rfoot -22.3709 -21.0695
rtoes 10.69
lfemur -31.4335 -3.10135 -15.1056
ltibia 38.2977
lfoot -5.59745 -4.24262
ltoes -4.15448
127
root 11.6091 18.1207 6.97104 -175.364 8.06016 180.425
lowerback 4.74555 2.92729 -0.663892
upperback 3.59723 4.1064 -1.23841
thorax 1.08808 2.14942 -1.04759
lowerneck -4.67026 -2.47976 -4.50177
upperneck 7.83744 -3.33214 3.06555
head 3.52068 -1.70718 1.65385
rclavicle -1.59028e-015 7.95139e-016
rhumerus -16.3254 8.80713 -77.5302
rradius 111.307
rwrist -13.2244
rhand -8.11672 36.3805
rfingers 7.12502
rthumb 17.7965 7.17486
lclavicle -1.59028e-015 7.95139e-016
lhumerus -22.5982 -5.77366 78.6663
lradius 116.13
lwrist 19.1784
lhand -10.6267 19.1783
lfingers 7.12502
lthumb 15.3801 48.5862
rfemur -7.23377 -0.165667 21.0785
rtibia 31.1876
rfoot -22.2239 -21.2673
rtoes 10.5037
lfemur -31.6116 -2.58158 -14.9322
ltibia 38.7537
lfoot -5.32391 -4.5313
ltoes -3.59031
128
root 11.6182 18.1244 6.98939 -175.239 8.18571 180.451
lowerback 4.15138 2.96804 -0.904294
upperback 3.82752 4.17231 -1.07156
thorax 1.62777 2.17684 -0.700954
lowerneck -4.68582 -2.48963 -4.5191
upperneck 8.04691 -3.33995 2.88156
head 3.59241 -1.72297 1.59499
rclavicle 1.69961e-014 -2.08724e-014
rhumerus -14.1038 7.85648 -77.0153
rradius 111.486
rwrist -13.5347
rhand -7.87419 37.9533
rfingers 7.12502
rthumb 18.0299 8.76903
lclavicle 1.69961e-014 -2.08724e-014
lhumerus -20.7815 -6.10001 78.6392
lradius 115.876
lwrist 18.6759
lhand -11.4413 19.0239
lfingers 7.12502
lthumb 14.5953 48.4903
rfemur -7.47262 0.136942 21.1737
rtibia 31.2069
rfoot -22.13 -21.4177
rtoes 10.5428
lfemur -32.0426 -2.48623 -14.8327
ltibia 39.1979
lfoot -4.93727 -4.43569
ltoes -3.25229
129
root 11.6264 18.1301 7.00737 -175.38 8.24654 180.195
lowerback 3.90556 2.92304 -1.10187
upperback 4.06184 4.14018 -1.21157
thorax 2.00388 2.16575 -0.709743
lowerneck -4.9335 -2.45744 -4.26063
upperneck 8.31422 -3.31006 2.79871
head 3.72371 -1.70499 1.52073
rclavicle -2.49475e-014 1.19271e-014
rhumerus -11.4488 6.63375 -77.0221
rradius 111.654
rwrist -15.061
rhand -6.46546 38.0325
rfingers 7.12502
rthumb 19.3849 8.97877
lclavicle -2.49475e-014 1.19271e-014
lhumerus -18.6776 -6.49721 78.144
lradius 115.336
lwrist 18.1089
lhand -12.2445 18.801
lfingers 7.12502
lthumb 13.8214 48.3218
rfemur -7.4734 0.285279 20.9548
rtibia 31.2932
rfoot -22.1751 -21.4283
rtoes 10.9147
lfemur -32.3232 -2.67995 -15.0078
ltibia 39.6586
lfoot -4.85962 -4.1299
ltoes -4.80745
